<?xml version="1.0" standalone="no"?>
<!DOCTYPE svg PUBLIC "-//W3C//DTD SVG 20010904//EN"
 "http://www.w3.org/TR/2001/REC-SVG-20010904/DTD/svg10.dtd">
<svg version="1.0" xmlns="http://www.w3.org/2000/svg"
 width="600.000000pt" height="600.000000pt" viewBox="0 0 600.000000 600.000000"
 preserveAspectRatio="xMidYMid meet">
<g transform="translate(0.000000,600.000000) scale(0.100000,-0.100000)"
fill="#000000" stroke="none">
<path d="M2924 4964 c-21 -15 -193 -143 -381 -286 l-342 -259 -44 -82 c-25
-45 -127 -239 -227 -432 -101 -192 -204 -390 -230 -440 -26 -49 -96 -182 -155
-295 -59 -113 -150 -286 -203 -385 -52 -99 -114 -216 -137 -260 -23 -44 -115
-218 -204 -387 -129 -245 -160 -312 -155 -332 4 -19 72 -73 263 -211 141 -102
339 -246 441 -320 102 -75 195 -138 208 -141 12 -4 33 -3 47 0 19 5 266 186
570 418 28 22 221 168 430 325 209 158 395 298 413 312 24 19 32 33 30 51 l-3
25 -542 5 c-298 3 -544 8 -548 12 -7 6 239 474 585 1118 76 140 153 287 173
325 74 148 92 149 168 7 29 -53 66 -124 84 -157 18 -33 95 -177 172 -320 78
-143 206 -381 286 -530 79 -148 254 -472 387 -720 134 -247 276 -511 316 -585
40 -74 84 -144 99 -155 39 -30 15 -45 557 373 177 136 178 137 178 169 0 21
-151 313 -752 1453 -131 249 -319 607 -504 960 -50 96 -105 189 -121 205 -28
29 -684 527 -727 552 -36 21 -90 15 -132 -13z"/>
</g>
</svg>
